<svg xmlns="http://www.w3.org/2000/svg" xmlns:xlink="http://www.w3.org/1999/xlink" xml:space="preserve" version="1.1" style="shape-rendering:geometricPrecision;text-rendering:geometricPrecision;image-rendering:optimizeQuality;" viewBox="0 0 846.66 1058.325" x="0px" y="0px" fill-rule="evenodd" clip-rule="evenodd"><defs><style type="text/css">
   
    .fil0 {fill:black}
   
  </style></defs><g><path class="fil0" d="M32.48 272.06l781.71 0 0 491.3 -781.71 0 0 -491.3zm60.97 -188.77l659.77 0 0 65.34 -659.77 0 0 -65.34zm-31.76 92.58l723.29 0 0 65.34 -723.29 0 0 -65.34zm313.87 279.14c47.28,0 58.54,66.79 13.54,82.16l30.5 43 -25.58 0.25 -30.63 -41.01 -5.6 0 0 40.16 -21.95 0 0 -124.56 39.72 0zm0 21.95l-17.77 0 0 40.49 17.77 0c26.63,0 26.71,-40.49 0,-40.49zm93.57 -21.95c55.56,0 55.63,84.4 0,84.4l-17.77 0 0 40.16 -21.95 0 0 -124.56 39.72 0zm0 21.95l-17.77 0 0 40.49 17.77 0c26.58,0 26.65,-40.49 0,-40.49zm-45.8 -109.65c83.06,0 150.4,67.34 150.4,150.4 0,83.06 -67.34,150.4 -150.4,150.4 -83.06,0 -150.4,-67.34 -150.4,-150.4 0,-83.06 67.34,-150.4 150.4,-150.4z"/></g><text x="0" y="861.66" fill="#000000" font-size="5px" font-weight="bold" font-family="'Helvetica Neue', Helvetica, Arial-Unicode, Arial, Sans-serif">Created by Sumyati</text><text x="0" y="866.66" fill="#000000" font-size="5px" font-weight="bold" font-family="'Helvetica Neue', Helvetica, Arial-Unicode, Arial, Sans-serif">from the Noun Project</text></svg>